<svg version="1.1" id="el_GffYboZDH" xmlns="http://www.w3.org/2000/svg" xmlns:xlink="http://www.w3.org/1999/xlink" x="0px" y="0px" viewBox="0 0 470 470" style="enable-background:new 0 0 470.001 470.001;" xml:space="preserve"><style type="text/css">@-webkit-keyframes el_-3HJK8Nm24_VYhVL921__Animation {
    0% {
        -webkit-transform: scale(1, 1);
                transform: scale(1, 1)
    }
    49.52% {
        -webkit-transform: scale(0.9, 0.9);
                transform: scale(0.9, 0.9)
    }
    100% {
        -webkit-transform: scale(1, 1);
                transform: scale(1, 1)
    }
}
@keyframes el_-3HJK8Nm24_VYhVL921__Animation {
    0% {
        -webkit-transform: scale(1, 1);
                transform: scale(1, 1)
    }
    49.52% {
        -webkit-transform: scale(0.9, 0.9);
                transform: scale(0.9, 0.9)
    }
    100% {
        -webkit-transform: scale(1, 1);
                transform: scale(1, 1)
    }
}
#el_GffYboZDH * {
    -webkit-animation-duration: 7s;
            animation-duration: 7s;
    -webkit-animation-iteration-count: infinite;
            animation-iteration-count: infinite;
    -webkit-animation-timing-function: cubic-bezier(0, 0, 1, 1);
            animation-timing-function: cubic-bezier(0, 0, 1, 1)
}
#el_-3HJK8Nm24_VYhVL921_ {
    -webkit-animation-name: el_-3HJK8Nm24_VYhVL921__Animation;
            animation-name: el_-3HJK8Nm24_VYhVL921__Animation;
    -webkit-transform-origin: 50% 50%;
            transform-origin: 50% 50%;
    transform-box: fill-box;
    -webkit-transform: scale(1, 1);
            transform: scale(1, 1)
}</style><style/>
<g id="el_-3HJK8Nm24_VYhVL921_" data-animator-group="true" data-animator-type="2"><g id="el_-3HJK8Nm24">
	<g id="el_vD4yUjU_f5">
		<path d="M467.804,30.481L439.52,2.197c-2.501-2.5-6.408-2.917-9.38-0.992l-36.514,23.642l-2.942-2.943&#10;&#9;&#9;&#9;c-2.501-2.5-6.408-2.916-9.38-0.992l-33.538,21.714l-13.229-13.229c-1.407-1.407-3.314-2.197-5.304-2.197s-3.896,0.79-5.304,2.197&#10;&#9;&#9;&#9;L2.196,351.131C0.79,352.538,0,354.445,0,356.435s0.79,3.897,2.196,5.303l106.066,106.066c1.465,1.464,3.385,2.197,5.304,2.197&#10;&#9;&#9;&#9;c1.919,0,3.839-0.732,5.304-2.197L440.604,146.07c2.929-2.929,2.929-7.678,0-10.606l-13.229-13.229l21.715-33.538&#10;&#9;&#9;&#9;c1.922-2.969,1.509-6.878-0.992-9.379l-2.943-2.943l23.642-36.514C470.718,36.892,470.305,32.982,467.804,30.481z M166.6,398.861&#10;&#9;&#9;&#9;l-21.213-21.214l5.303-5.303c2.928-2.928,2.928-7.677,0-10.606l-47.73-47.729l11.314-11.314l47.729,47.729&#10;&#9;&#9;&#9;c1.465,1.465,3.384,2.197,5.304,2.197c1.919,0,3.839-0.732,5.303-2.197l5.304-5.303l21.214,21.214L166.6,398.861z M134.78,367.041&#10;&#9;&#9;&#9;c-0.001,0-5.297,5.296-5.304,5.303c-0.007,0.008-5.303,5.304-5.303,5.304l-42.426-42.427l10.606-10.606L134.78,367.041z&#10;&#9;&#9;&#9; M124.882,292.088l10.605-10.606l42.427,42.426l-10.607,10.606L124.882,292.088z M209.733,355.728l-21.214-21.214l5.303-5.303&#10;&#9;&#9;&#9;c1.407-1.406,2.197-3.314,2.197-5.303s-0.79-3.897-2.196-5.303l-47.73-47.73l21.921-21.92l74.246,74.246L209.733,355.728z&#10;&#9;&#9;&#9; M252.867,312.594l-74.246-74.246l21.919-21.92l47.729,47.729c1.465,1.464,3.385,2.197,5.304,2.197s3.839-0.732,5.304-2.197&#10;&#9;&#9;&#9;l5.303-5.303l21.214,21.213L252.867,312.594z M211.146,205.822l10.607-10.607l42.426,42.426l-5.299,5.299&#10;&#9;&#9;&#9;c-0.01,0.01-5.308,5.308-5.308,5.308L211.146,205.822z M296,269.46l-21.214-21.213l5.303-5.303c2.929-2.929,2.929-7.678,0-10.606&#10;&#9;&#9;&#9;l-47.73-47.73l11.315-11.314l47.729,47.729c1.407,1.407,3.314,2.197,5.304,2.197s3.896-0.79,5.304-2.197l5.303-5.303&#10;&#9;&#9;&#9;l21.213,21.213L296,269.46z M254.282,162.687l10.605-10.606l42.427,42.426l-5.301,5.302c-0.005,0.005-5.305,5.305-5.305,5.305&#10;&#9;&#9;&#9;L254.282,162.687z M339.133,226.327l-21.213-21.214l5.303-5.304c2.929-2.929,2.929-7.678,0-10.606l-47.73-47.729l11.315-11.314&#10;&#9;&#9;&#9;l47.729,47.73c1.465,1.465,3.384,2.197,5.304,2.197c1.919,0,3.839-0.732,5.304-2.197l5.303-5.303L371.66,193.8L339.133,226.327z&#10;&#9;&#9;&#9; M297.415,119.553l10.606-10.606l42.427,42.426l-5.301,5.301c-0.005,0.005-5.306,5.306-5.306,5.306L297.415,119.553z&#10;&#9;&#9;&#9; M382.267,183.193l-21.213-21.213l5.303-5.303c1.406-1.406,2.196-3.314,2.196-5.303c0-1.989-0.79-3.897-2.196-5.303l-47.73-47.73&#10;&#9;&#9;&#9;l15.91-15.91c2.929-2.929,2.929-7.678,0-10.606c-2.929-2.928-7.677-2.93-10.607,0l-21.213,21.213l-43.132,43.132&#10;&#9;&#9;&#9;c-0.002,0.002-21.213,21.212-21.213,21.212c-0.003,0.003-21.915,21.916-21.915,21.916c-0.013,0.013-21.218,21.218-21.218,21.218&#10;&#9;&#9;&#9;c-0.005,0.005-65.052,65.053-65.052,65.053c-0.007,0.007-43.133,43.133-43.133,43.133c-0.008,0.008-21.213,21.213-21.213,21.213&#10;&#9;&#9;&#9;c-0.009,0.009-21.218,21.218-21.218,21.218c-2.929,2.929-2.929,7.678,0,10.606c1.465,1.464,3.385,2.197,5.304,2.197&#10;&#9;&#9;&#9;s3.839-0.732,5.304-2.197L71.14,345.83l47.729,47.729c1.407,1.407,3.314,2.197,5.304,2.197c1.99,0,3.896-0.79,5.304-2.197&#10;&#9;&#9;&#9;l5.303-5.303l21.213,21.213l-42.426,42.426l-95.46-95.459L329.234,45.307l12.151,12.151c0.017,0.018,0.035,0.034,0.052,0.052&#10;&#9;&#9;&#9;l71.065,71.065c0.034,0.034,12.193,12.193,12.193,12.193L382.267,183.193z M434.307,65.528l-15.179-15.179&#10;&#9;&#9;&#9;c-2.93-2.929-7.678-2.929-10.607,0c-2.929,2.929-2.929,7.678,0,10.606l21.749,21.748c0.018,0.018,0.035,0.036,0.053,0.053&#10;&#9;&#9;&#9;l2.879,2.879l-16.674,25.752l-57.915-57.915l25.753-16.674l2.942,2.943c2.502,2.501,6.41,2.917,9.38,0.992l36.514-23.642&#10;&#9;&#9;&#9;l19.707,19.707L434.307,65.528z" id="el_x5aRB61cn-"/>
	</g>
</g></g>
<g id="el_va96Fbxvit">
</g>
<g id="el_fP3zp_zkfv">
</g>
<g id="el_HMQ1C2t4Rd">
</g>
<g id="el_AiOFM7FfUN">
</g>
<g id="el_z2KxHIEKBI">
</g>
<g id="el_NQ3akP024q">
</g>
<g id="el_mElS6U2vCr">
</g>
<g id="el_TWMIuwOw8u">
</g>
<g id="el_-ONvpN07Dr">
</g>
<g id="el_KwZfz5L99-">
</g>
<g id="el_STn2r5jxvj">
</g>
<g id="el_svUivAYEK4">
</g>
<g id="el_tQtICd9hHSn">
</g>
<g id="el_K8AyK-loSAo">
</g>
<g id="el_W___OoKc-K-">
</g>
<script>(function(){var a=document.querySelector('#el_GffYboZDH'),b=a.querySelectorAll('style'),c=function(d){b.forEach(function(f){var g=f.textContent;g&amp;&amp;(f.textContent=g.replace(/transform-box:[^;\r\n]*/gi,'transform-box: '+d))})};c('initial'),window.requestAnimationFrame(function(){return c('fill-box')})})();</script></svg>